<?xml version="1.0" encoding="UTF-8"?>
<svg xmlns="http://www.w3.org/2000/svg" width="300" height="130" viewBox="0 0 300 130">
  <defs>
    <pattern id="tile" patternUnits="userSpaceOnUse" width="4" height="6">
      <rect x="0" y="0" width="4" height="6" fill="black"/>
      <rect x="1" y="2" width="1" height="4" fill="red"/>
      <rect x="2" y="1" width="1" height="4" fill="lime"/>
      <rect x="3" y="0" width="1" height="4" fill="blue"/>
    </pattern>
    <path id="box" d="M268.04,129H9.4c-5.52,0-9.21-4.48-8.24-10L20.2,11c.97-5.52,6.24-10,11.76-10h258.64c5.52,0,9.21,4.48,8.24,10l-19.04,108c-.97,5.52-6.24,10-11.76,10Z"/>
    <g id="dbc">
      <path d="M68.93,55.35h.78l6.28-35.21h13.22l-14.89,84.31h-13.11l1.89-10.89h-.83c-2.67,7.22-9.61,11.83-17.61,11.83-12.44,0-20.38-8.17-20.38-21,0-2.72.22-5.44.56-7.55l1.61-9.83c2.39-15.16,11.83-24.44,24.72-24.44,9.05,0,16.5,5.05,17.77,12.77ZM39.6,67.74l-1.5,8.66c-.22,1.39-.44,3.28-.44,5.05,0,7.5,4.89,12.5,12.27,12.5,8.16,0,14.11-5.39,15.72-14.16l1.61-9.22c.28-1.55.33-2.67.33-3.78,0-7.55-5.61-13.11-13.27-13.11s-13.11,5.05-14.72,14.05Z"/>
      <path d="M99.66,92.4h-.94l-2.11,12.05h-13.39l14.89-84.31h13.33l-5.83,33.16h1.11c3.05-6.61,9.66-10.72,17.44-10.72,12.22,0,20.05,8.33,20.05,21.22,0,1.89-.17,3.78-.61,6.44l-1.89,10.55c-2.72,15.66-11.61,24.61-24.16,24.61-9.5,0-16.38-5-17.88-13ZM128.82,80.29l1.67-9.39c.22-1.5.33-3.11.33-4.94,0-7.55-4.89-12.39-12.77-12.39s-13.61,5.67-15.16,14.16l-1.67,9.28c-.22,1.39-.33,2.72-.33,4.17,0,7.39,5.55,12.94,13.27,12.94s13.11-5.22,14.66-13.83Z"/>
      <path d="M191.35,64.68v-.67c0-6.33-5.11-10.89-12.33-10.89-8.83,0-14.05,5.44-16.11,16.5l-.72,4.33c-.44,2.39-.78,5.17-.78,7,0,8.89,4.67,13.83,12.94,13.83,6.67,0,11.44-3.28,13.55-9.61h12.66c-2.56,12.44-13.11,20.55-26.94,20.55-15.38,0-25.05-8.94-25.05-23.05,0-2.39.22-5.11.67-7.94.17-1.17,1.06-6.44,1.44-8.44,2.67-14.94,13.61-24.05,28.83-24.05s24.61,8.22,24.61,20.27c0,.61-.06,1.39-.11,2.17h-12.66Z"/>
    </g>
    <polygon id="cursor" points="203 116.08 264.11 116.08 282.11 13.97 221 13.97 203 116.08"/>
    <g id="logo">
      <use href="#dbc"/>
      <use href="#cursor"/>
    </g>
    <mask id="mask">
      <use href="#box" fill="white"/>
      <use href="#logo" fill="black"/>
    </mask>
  </defs>
  <use href="#box" fill="url(#tile)"/>
  <use href="#box" opacity="0.6" mask="url(#mask)"/>
  <use href="#logo" fill="white" opacity="0.2" />
</svg>
