<?xml version="1.0" encoding="UTF-8"?>
<svg id="a" data-name="Layer 1" xmlns="http://www.w3.org/2000/svg" viewBox="0 0 300 130">
  <g>
    <path d="M53.84,53.96h.89l7.16-40.19h15.09l-16.99,96.22h-14.96l2.16-12.42h-.95c-3.04,8.24-10.97,13.5-20.09,13.5-14.2,0-23.26-9.32-23.26-23.96,0-3.11.25-6.21.63-8.62l1.84-11.22c2.73-17.3,13.5-27.89,28.21-27.89,10.33,0,18.83,5.77,20.28,14.58ZM20.37,68.09l-1.71,9.89c-.25,1.58-.51,3.74-.51,5.77,0,8.56,5.58,14.26,14.01,14.26,9.32,0,16.1-6.15,17.94-16.16l1.84-10.52c.32-1.77.38-3.04.38-4.31,0-8.62-6.4-14.96-15.15-14.96s-14.96,5.77-16.8,16.04Z"/>
    <path d="M88.9,96.23h-1.08l-2.41,13.75h-15.28L87.13,13.77h15.21l-6.66,37.84h1.27c3.49-7.54,11.03-12.23,19.9-12.23,13.94,0,22.88,9.51,22.88,24.21,0,2.15-.19,4.31-.7,7.35l-2.16,12.04c-3.11,17.87-13.25,28.08-27.57,28.08-10.84,0-18.7-5.7-20.41-14.83ZM122.18,82.42l1.9-10.71c.25-1.71.38-3.55.38-5.64,0-8.62-5.58-14.13-14.58-14.13s-15.53,6.47-17.3,16.16l-1.9,10.58c-.25,1.58-.38,3.11-.38,4.75,0,8.43,6.34,14.77,15.15,14.77s14.96-5.96,16.73-15.78Z"/>
    <path d="M193.54,64.61v-.76c0-7.23-5.83-12.42-14.07-12.42-10.08,0-16.04,6.21-18.38,18.83l-.82,4.94c-.51,2.73-.89,5.9-.89,7.99,0,10.14,5.32,15.78,14.77,15.78,7.61,0,13.06-3.74,15.47-10.96h14.45c-2.92,14.2-14.96,23.45-30.74,23.45-17.56,0-28.59-10.21-28.59-26.3,0-2.73.25-5.83.76-9.06.19-1.33,1.2-7.35,1.65-9.63,3.04-17.05,15.53-27.44,32.9-27.44s28.08,9.38,28.08,23.14c0,.7-.06,1.58-.13,2.47h-14.45Z"/>
  </g>
  <polygon points="206.83 123.26 276.57 123.26 297.11 6.74 227.38 6.74 206.83 123.26"/>
</svg>