<svg width="48" height="48" viewBox="0 0 48 48" fill="none" xmlns="http://www.w3.org/2000/svg">
<path d="M47 21.3924C47 24.5126 46.5158 27.3096 45.5474 29.7834C44.5789 32.2573 43.2205 34.4525 41.4719 36.3692C39.7503 38.2636 37.6924 39.8794 35.2982 41.2166C32.9041 42.5538 30.2813 43.657 27.4298 44.5262C24.5784 45.3731 21.5386 45.9971 18.3105 46.3983C15.1094 46.7994 11.814 47 8.42456 47C7.16023 47 5.92281 46.9777 4.71228 46.9331C3.50175 46.8663 2.26433 46.7771 1 46.6657L2.12982 3.13953C5.08889 2.3595 8.12865 1.81347 11.2491 1.50145C14.3965 1.16715 17.517 1 20.6105 1C24.4573 1 27.9947 1.44574 31.2228 2.33721C34.4509 3.22868 37.2351 4.5436 39.5754 6.28198C41.9158 7.99806 43.7316 10.1265 45.0228 12.6672C46.3409 15.1856 47 18.094 47 21.3924ZM19.5614 34.2297C21.1754 34.0291 22.6415 33.6279 23.9596 33.0262C25.3047 32.4021 26.4614 31.6444 27.4298 30.7529C28.3982 29.8391 29.138 28.814 29.6491 27.6773C30.1871 26.5184 30.4561 25.2926 30.4561 24C30.4561 22.7297 30.2947 21.5484 29.9719 20.4564C29.6491 19.3421 29.1246 18.3837 28.3982 17.5814C27.6719 16.7568 26.717 16.1105 25.5333 15.6424C24.3497 15.1521 22.8971 14.8847 21.1754 14.8401L19.5614 34.2297Z" fill="#C7F2F5"/>
</svg>
